{
	"asset":{
		"generator":"Khronos glTF Blender I/O v4.0.44",
		"version":"2.0"
	},
	"scene":0,
	"scenes":[
		{
			"name":"Scene",
			"nodes":[
				7,
				8,
				9,
				10,
				11
			]
		}
	],
	"nodes":[
		{
			"mesh":0,
			"name":"Floor_Floor_0"
		},
		{
			"children":[
				0
			],
			"name":"Floor"
		},
		{
			"name":"GenHuman",
			"translation":[
				0,
				1.8073817491531372,
				0.05502691492438316
			]
		},
		{
			"name":"rig",
			"rotation":[
				-0.70710688829422,
				0,
				0,
				0.7071066498756409
			]
		},
		{
			"children":[
				1,
				2,
				3
			],
			"name":"RootNode"
		},
		{
			"children":[
				4
			],
			"name":"Object_2"
		},
		{
			"children":[
				5
			],
			"name":"f542659f21ce4decaad3836a0235e414.fbx",
			"rotation":[
				0.70710688829422,
				0,
				0,
				0.7071066498756409
			]
		},
		{
			"children":[
				6
			],
			"name":"Sketchfab_model",
			"rotation":[
				-0.70710688829422,
				0,
				0,
				0.7071066498756409
			]
		},
		{
			"mesh":1,
			"name":"Object_9"
		},
		{
			"name":"Object_8",
			"translation":[
				0,
				1.8073817491531372,
				0.05502691492438316
			]
		},
		{
			"mesh":2,
			"name":"p1",
			"scale":[
				0.050000011920928955,
				0.050000011920928955,
				0.050000011920928955
			],
			"translation":[
				0.13972744345664978,
				1.7343047857284546,
				0.06797753274440765
			]
		},
		{
			"mesh":3,
			"name":"p2",
			"scale":[
				0.050000011920928955,
				0.050000011920928955,
				0.050000011920928955
			],
			"translation":[
				-0.14133143424987793,
				1.7343047857284546,
				0.06797753274440765
			]
		}
	],
	"materials":[
		{
			"doubleSided":true,
			"name":"Floor",
			"pbrMetallicRoughness":{
				"baseColorTexture":{
					"index":0
				},
				"metallicFactor":0,
				"roughnessFactor":0
			}
		},
		{
			"doubleSided":true,
			"name":"Sycranian",
			"occlusionTexture":{
				"index":1
			},
			"pbrMetallicRoughness":{
				"baseColorTexture":{
					"index":2
				},
				"metallicFactor":0.7030297517776489,
				"metallicRoughnessTexture":{
					"index":1
				},
				"roughnessFactor":0.38843369483947754
			}
		},
		{
			"doubleSided":true,
			"name":"redDot",
			"pbrMetallicRoughness":{
				"baseColorFactor":[
					0.8002825975418091,
					0.0098498510196805,
					0.07448133826255798,
					1
				],
				"roughnessFactor":0.5
			}
		},
		{
			"doubleSided":true,
			"name":"redDot.001",
			"pbrMetallicRoughness":{
				"baseColorFactor":[
					0.8002825975418091,
					0.0098498510196805,
					0.07448133826255798,
					1
				],
				"roughnessFactor":0.5
			}
		}
	],
	"meshes":[
		{
			"name":"Floor_Floor_0",
			"primitives":[
				{
					"attributes":{
						"POSITION":0,
						"NORMAL":1,
						"TEXCOORD_0":2,
						"TEXCOORD_1":3
					},
					"indices":4,
					"material":0
				}
			]
		},
		{
			"name":"GenHuman_Sycranian_0",
			"primitives":[
				{
					"attributes":{
						"POSITION":5,
						"NORMAL":6,
						"TEXCOORD_0":7
					},
					"indices":8,
					"material":1
				}
			]
		},
		{
			"name":"Sphere",
			"primitives":[
				{
					"attributes":{
						"POSITION":9,
						"NORMAL":10,
						"TEXCOORD_0":11
					},
					"indices":12,
					"material":2
				}
			]
		},
		{
			"name":"Sphere.001",
			"primitives":[
				{
					"attributes":{
						"POSITION":13,
						"NORMAL":14,
						"TEXCOORD_0":15
					},
					"indices":12,
					"material":3
				}
			]
		}
	],
	"textures":[
		{
			"sampler":0,
			"source":0
		},
		{
			"sampler":0,
			"source":1
		},
		{
			"sampler":0,
			"source":2
		}
	],
	"images":[
		{
			"mimeType":"image/png",
			"name":"Image_2",
			"uri":"Image_2.png"
		},
		{
			"mimeType":"image/png",
			"name":"Image_1",
			"uri":"Image_1.png"
		},
		{
			"mimeType":"image/png",
			"name":"Image_0",
			"uri":"Image_0.png"
		}
	],
	"accessors":[
		{
			"bufferView":0,
			"componentType":5126,
			"count":10166,
			"max":[
				1.5957651138305664,
				-0.010776427574455738,
				1.5957651138305664
			],
			"min":[
				-1.5957651138305664,
				-0.012675358913838863,
				-1.5957651138305664
			],
			"type":"VEC3"
		},
		{
			"bufferView":1,
			"componentType":5126,
			"count":10166,
			"type":"VEC3"
		},
		{
			"bufferView":2,
			"componentType":5126,
			"count":10166,
			"type":"VEC2"
		},
		{
			"bufferView":3,
			"componentType":5126,
			"count":10166,
			"type":"VEC2"
		},
		{
			"bufferView":4,
			"componentType":5123,
			"count":17952,
			"type":"SCALAR"
		},
		{
			"bufferView":5,
			"componentType":5126,
			"count":20249,
			"max":[
				0.8434931635856628,
				1.965734839439392,
				0.20139747858047485
			],
			"min":[
				-0.8434931635856628,
				-0.0183041263371706,
				-0.1544053554534912
			],
			"type":"VEC3"
		},
		{
			"bufferView":6,
			"componentType":5126,
			"count":20249,
			"type":"VEC3"
		},
		{
			"bufferView":7,
			"componentType":5126,
			"count":20249,
			"type":"VEC2"
		},
		{
			"bufferView":8,
			"componentType":5123,
			"count":87360,
			"type":"SCALAR"
		},
		{
			"bufferView":9,
			"componentType":5126,
			"count":1984,
			"max":[
				0.9999997019767761,
				1,
				0.9999993443489075
			],
			"min":[
				-0.9999990463256836,
				-1,
				-1
			],
			"type":"VEC3"
		},
		{
			"bufferView":10,
			"componentType":5126,
			"count":1984,
			"type":"VEC3"
		},
		{
			"bufferView":11,
			"componentType":5126,
			"count":1984,
			"type":"VEC2"
		},
		{
			"bufferView":12,
			"componentType":5123,
			"count":2880,
			"type":"SCALAR"
		},
		{
			"bufferView":13,
			"componentType":5126,
			"count":1984,
			"max":[
				0.9999997019767761,
				1,
				0.9999993443489075
			],
			"min":[
				-0.9999990463256836,
				-1,
				-1
			],
			"type":"VEC3"
		},
		{
			"bufferView":14,
			"componentType":5126,
			"count":1984,
			"type":"VEC3"
		},
		{
			"bufferView":15,
			"componentType":5126,
			"count":1984,
			"type":"VEC2"
		}
	],
	"bufferViews":[
		{
			"buffer":0,
			"byteLength":121992,
			"byteOffset":0,
			"target":34962
		},
		{
			"buffer":0,
			"byteLength":121992,
			"byteOffset":121992,
			"target":34962
		},
		{
			"buffer":0,
			"byteLength":81328,
			"byteOffset":243984,
			"target":34962
		},
		{
			"buffer":0,
			"byteLength":81328,
			"byteOffset":325312,
			"target":34962
		},
		{
			"buffer":0,
			"byteLength":35904,
			"byteOffset":406640,
			"target":34963
		},
		{
			"buffer":0,
			"byteLength":242988,
			"byteOffset":442544,
			"target":34962
		},
		{
			"buffer":0,
			"byteLength":242988,
			"byteOffset":685532,
			"target":34962
		},
		{
			"buffer":0,
			"byteLength":161992,
			"byteOffset":928520,
			"target":34962
		},
		{
			"buffer":0,
			"byteLength":174720,
			"byteOffset":1090512,
			"target":34963
		},
		{
			"buffer":0,
			"byteLength":23808,
			"byteOffset":1265232,
			"target":34962
		},
		{
			"buffer":0,
			"byteLength":23808,
			"byteOffset":1289040,
			"target":34962
		},
		{
			"buffer":0,
			"byteLength":15872,
			"byteOffset":1312848,
			"target":34962
		},
		{
			"buffer":0,
			"byteLength":5760,
			"byteOffset":1328720,
			"target":34963
		},
		{
			"buffer":0,
			"byteLength":23808,
			"byteOffset":1334480,
			"target":34962
		},
		{
			"buffer":0,
			"byteLength":23808,
			"byteOffset":1358288,
			"target":34962
		},
		{
			"buffer":0,
			"byteLength":15872,
			"byteOffset":1382096,
			"target":34962
		}
	],
	"samplers":[
		{
			"magFilter":9729,
			"minFilter":9987
		}
	],
	"buffers":[
		{
			"byteLength":1397968,
			"uri":"human_body.bin"
		}
	]
}
